<svg id="Componente_2_1" data-name="Componente 2 – 1" xmlns="http://www.w3.org/2000/svg" width="436" height="127" viewBox="0 0 436 127">
  <path id="element_wave-dark-grey" data-name="element/wave-dark-grey" d="M-4108.9,1163a50.292,50.292,0,0,1-35.737-14.832,34.53,34.53,0,0,0-48.89,0h0a50.272,50.272,0,0,1-35.732,14.83A50.294,50.294,0,0,1-4265,1148.169l11.3-11.339a34.507,34.507,0,0,0,48.872,0,50.49,50.49,0,0,1,71.488,0,34.507,34.507,0,0,0,48.872,0,50.468,50.468,0,0,1,71.469,0l-11.3,11.34a34.509,34.509,0,0,0-48.872,0A50.278,50.278,0,0,1-4108.9,1163Z" transform="translate(4357 -1122)" fill="#6045AF"/>
  <path id="element_wave-green" data-name="element/wave-green" d="M-3994.929,1192a87.61,87.61,0,0,1-61.83-25.322,60.308,60.308,0,0,0-84.588,0h0A87.579,87.579,0,0,1-4203.17,1192,87.613,87.613,0,0,1-4265,1166.678l19.549-19.359a60.268,60.268,0,0,0,84.556,0c34.09-33.76,89.594-33.765,123.685,0a60.268,60.268,0,0,0,84.556,0c34.09-33.76,89.563-33.756,123.654,0l-19.549,19.36a60.27,60.27,0,0,0-84.556-.006A87.586,87.586,0,0,1-3994.924,1192Z" transform="translate(4265 -1065)" fill="#65A300"/>
</svg>
